<?xml version="1.0" encoding="UTF-8"?>
<svg width="634px" height="246px" viewBox="0 0 634 246" version="1.1" xmlns="http://www.w3.org/2000/svg" xmlns:xlink="http://www.w3.org/1999/xlink">
    <!-- Generator: Sketch 49.3 (51167) - http://www.bohemiancoding.com/sketch -->
    <title>Group</title>
    <desc>Created with Sketch.</desc>
    <defs>
        <path d="M0,3.72571429 L91.2347126,3.72571429 L91.2347126,44.4757143 L49.4478213,44.4757143 L49.4478213,61.7071429 L90.5382644,61.7071429 L90.5382644,100.361429 L49.4478213,100.361429 L49.4478213,159.041429 L0,159.041429 L0,3.72571429 Z M104.002929,3.72571429 L156.468693,3.72571429 L156.468693,159.041429 L104.002929,159.041429 L104.002929,3.72571429 Z M172.71915,3.72571429 L263.953863,3.72571429 L263.953863,44.4757143 L222.166972,44.4757143 L222.166972,61.7071429 L263.257415,61.7071429 L263.257415,100.361429 L222.166972,100.361429 L222.166972,118.291429 L265.578909,118.291429 L265.578909,159.041429 L172.71915,159.041429 L172.71915,3.72571429 Z M275.329183,110.84 C278.734058,111.926672 282.293647,112.780473 286.008056,113.401429 C289.103396,114.177623 292.624294,114.798569 296.570853,115.264286 C300.517413,115.730002 304.502604,115.962857 308.526547,115.962857 C315.645831,115.962857 319.205419,113.323836 319.205419,108.045714 C319.205419,106.027609 318.122066,103.970725 315.955328,101.875 C313.788589,99.7792752 311.041515,97.4507271 307.714024,94.8892857 C304.386533,92.3278443 300.826944,89.4947774 297.035152,86.39 C293.24336,83.2852226 289.683771,79.7147821 286.35628,75.6785714 C283.028788,71.6423608 280.281715,67.1016919 278.114976,62.0564286 C275.948238,57.0111652 274.864885,51.228604 274.864885,44.7085714 C274.864885,37.4123445 276.180385,30.9700279 278.811424,25.3814286 C281.442464,19.7928292 285.079435,15.1357329 289.722446,11.41 C294.365457,7.68426709 299.820913,4.85120018 306.088978,2.91071429 C312.357043,0.970228393 319.050617,0 326.169901,0 C329.88431,0 333.598663,0.194045679 337.313072,0.582142857 C341.027481,0.970240036 344.354922,1.31952226 347.295496,1.63 C350.700371,2.09571661 354.027812,2.56142624 357.27792,3.02714286 L357.27792,46.5714286 C356.039784,46.4161897 354.646901,46.2609532 353.099231,46.1057143 C351.861095,45.9504754 350.468212,45.7952389 348.920542,45.64 C347.372872,45.4847611 345.747842,45.4071429 344.045405,45.4071429 C343.116802,45.4071429 341.956067,45.445952 340.563164,45.5235714 C339.17026,45.6011909 337.85476,45.7952365 336.616624,46.1057143 C335.378488,46.416192 334.295135,46.9595199 333.366532,47.7357143 C332.43793,48.5119086 331.973636,49.5985644 331.973636,50.9957143 C331.973636,52.2376253 333.018298,53.7899907 335.107653,55.6528571 C337.197008,57.5157236 339.750626,59.6890352 342.768583,62.1728571 C345.78654,64.6566791 349.113982,67.5285551 352.751007,70.7885714 C356.388032,74.0485877 359.715474,77.7742648 362.733431,81.9657143 C365.751388,86.1571638 368.305006,90.8918784 370.394361,96.17 C372.483716,101.448122 373.528378,107.34711 373.528378,113.867143 C373.528378,120.697653 372.445025,127.101161 370.278286,133.077857 C368.111548,139.054554 364.745415,144.254978 360.179788,148.679286 C355.61416,153.103594 349.771792,156.596416 342.652508,159.157857 C335.533225,161.719299 327.098547,163 317.348224,163 C311.467077,163 306.01162,162.728336 300.981692,162.185 C295.951763,161.641664 291.502277,160.981909 287.633101,160.205714 C283.144857,159.42952 279.043592,158.498101 275.329183,157.411429 L275.329183,110.84 Z M404.404248,44.4757143 L375.849872,44.4757143 L375.849872,3.72571429 L484.03149,3.72571429 L484.03149,44.4757143 L455.477115,44.4757143 L455.477115,159.041429 L404.404248,159.041429 L404.404248,44.4757143 Z M538.1223,3.72571429 L575.266203,3.72571429 L634,159.041429 L585.248627,159.041429 L580.14134,145.07 L533.247162,145.07 L528.139876,159.041429 L479.388502,159.041429 L538.1223,3.72571429 Z M567.140974,110.84 L556.694251,83.5957143 L546.247528,110.84 L567.140974,110.84 Z" id="path-1"></path>
        <linearGradient x1="-19.2382192%" y1="118.293348%" x2="123.902629%" y2="-24.7827483%" id="linearGradient-3">
            <stop stop-color="#FFAF00" offset="0%"></stop>
            <stop stop-color="#FF5A00" offset="100%"></stop>
        </linearGradient>
    </defs>
    <g id="Page-1" stroke="none" stroke-width="1" fill="none" fill-rule="evenodd">
        <g id="export-copy" transform="translate(-16.000000, -8.000000)">
            <g id="Group" transform="translate(16.000000, 8.000000)">
                <path d="M68.8945419,216.622407 C68.8945419,226.197374 65.5785564,233.650504 58.9464859,238.982019 C54.0937513,242.899051 47.5965765,244.857538 39.4547663,244.857538 C39.2390892,244.857538 38.2820365,244.830337 36.5835794,244.775934 C34.8851223,244.72153 32.4183526,244.694329 29.1831962,244.694329 L25.139271,244.694329 L18.7498692,244.775934 C18.3724342,244.830337 17.9680458,244.857538 17.5366916,244.857538 C16.5122254,244.857538 16,244.585526 16,244.041494 C16,243.551865 16.8626954,243.307054 18.5881121,243.307054 C20.7988023,243.307054 22.1737231,242.899036 22.7129159,242.082988 C22.928593,241.702165 23.0364299,240.668519 23.0364299,238.982019 L23.0364299,194.997234 C23.0364299,192.331476 22.8342357,190.781007 22.4298411,190.345781 C22.0254466,189.910556 20.6370461,189.692946 18.2645981,189.692946 C17.0244549,189.692946 16.4043925,189.393733 16.4043925,188.795297 C16.4043925,188.360072 16.8626995,188.142462 17.7793271,188.142462 C17.7254078,188.142462 18.3185109,188.169663 19.5586542,188.224066 C20.7987975,188.27847 22.0119629,188.305671 23.1981869,188.305671 L31.8521869,188.305671 C41.5576559,188.305671 48.4322601,188.985701 52.4762055,190.345781 C57.3828593,191.977878 61.3458664,195.201221 64.3653457,200.015906 C67.3848249,204.830591 68.8945419,210.366036 68.8945419,216.622407 Z M59.8361494,216.295989 C59.8361494,207.265054 58.0837994,200.641561 54.5790466,196.425311 C51.0742939,192.209061 45.6015698,190.100968 38.1607102,190.100968 C34.548119,190.100968 32.3644212,190.481785 31.6095514,191.24343 C31.2860357,191.624253 31.1242803,192.92991 31.1242803,195.160443 L31.1242803,238.573997 C31.1242803,240.097287 31.1647192,241.022128 31.2455981,241.348548 C31.326477,241.674967 31.5556305,241.946979 31.9330654,242.164592 C33.2271279,242.817431 35.9500103,243.143845 40.1017943,243.143845 C45.9250758,243.143845 50.6159821,241.076554 54.1746541,236.941909 C57.9490032,232.589651 59.8361494,225.707746 59.8361494,216.295989 Z M124.619832,244.286307 C124.619832,244.775936 124.215443,245.020747 123.406654,245.020747 C122.867461,245.020747 122.382195,244.993546 121.950841,244.939142 L111.679271,244.775934 L101.407701,244.939142 C101.030266,244.993546 100.625877,245.020747 100.194523,245.020747 C99.1161377,245.020747 98.5769531,244.748735 98.5769531,244.204703 C98.5769531,243.606267 99.3048523,243.307054 100.760673,243.307054 C105.505569,243.252651 107.877981,242.763029 107.877981,241.838174 C107.877981,241.783771 107.824063,241.566161 107.716224,241.185339 L107.069196,238.982019 L106.664804,237.839557 C106.17953,236.153057 104.993324,232.426493 103.106149,226.659751 L85.7981494,226.659751 C82.562993,235.364267 80.9454391,240.369288 80.9454391,241.674965 C80.9454391,242.436611 81.2689499,242.899031 81.9159811,243.062241 C82.077739,243.116644 83.4257006,243.225449 85.9599064,243.388658 C87.5235653,243.443062 88.305383,243.715074 88.305383,244.204703 C88.305383,244.748735 87.604443,245.020747 86.2025419,245.020747 C83.7222553,245.020747 80.8376175,244.911942 77.5485419,244.694329 C76.7397528,244.639926 75.9040166,244.612725 75.0413083,244.612725 C74.1785999,244.612725 73.3428637,244.667127 72.5340746,244.775934 C72.1027204,244.830337 71.7522504,244.857538 71.4826541,244.857538 C70.7277843,244.857538 70.350355,244.612727 70.350355,244.123098 C70.350355,243.633469 71.1995708,243.361457 72.8980279,243.307054 C74.596485,243.252651 75.82313,242.994239 76.5779999,242.531812 C77.3328697,242.069385 77.9259728,241.185345 78.3573269,239.879668 C85.3129131,219.859282 90.9743518,203.783371 95.3418129,191.651452 C95.4496514,190.998614 95.6653253,190.264181 95.9888409,189.448133 L96.3932334,187.979253 C96.5549913,187.380818 96.7706651,187.081604 97.0402615,187.081604 C97.2020193,187.081604 97.3368155,187.244812 97.444654,187.571231 C98.1456045,189.692957 99.7361992,194.126753 102.216486,200.872752 C104.15758,206.149865 108.983282,219.396851 116.693738,240.614108 C117.125092,241.810979 117.677757,242.572612 118.351747,242.899032 C119.025738,243.225451 120.414139,243.41586 122.51699,243.470263 C123.918891,243.524666 124.619832,243.796678 124.619832,244.286307 Z M102.620878,224.782849 C101.75817,222.334704 100.329331,218.281725 98.3343176,212.62379 L94.4521493,201.443983 C92.1875399,207.428338 89.4646575,215.207882 86.2834204,224.782849 L102.620878,224.782849 Z M172.904299,188.958506 C172.904299,189.502538 172.230318,189.747349 170.882336,189.692946 L169.103009,189.611342 L167.647196,189.611342 C166.784488,189.611342 166.272262,189.760948 166.110504,190.060166 C165.948746,190.359384 165.867869,191.270624 165.867869,192.793914 L165.867869,239.798064 C165.867869,242.681434 165.84091,244.367909 165.78699,244.857538 C165.733071,245.347167 165.571316,245.591978 165.301719,245.591978 C164.978204,245.591978 164.600774,245.292765 164.16942,244.694329 L153.816972,229.434302 C147.831932,220.566576 140.55294,209.495686 131.979775,196.2213 L132.060654,241.75657 C132.114573,242.463812 132.518962,242.912632 133.273831,243.103043 C134.028701,243.293454 135.83497,243.41586 138.692691,243.470263 C139.393642,243.470263 139.744112,243.687872 139.744112,244.123098 C139.744112,244.66713 139.043172,244.939142 137.641271,244.939142 C137.155997,244.939142 135.619321,244.857539 133.031196,244.694329 C132.168488,244.639926 131.332751,244.612725 130.523962,244.612725 C130.577882,244.612725 130.106095,244.667127 129.108589,244.775934 C128.111082,244.88474 126.587885,244.939142 124.538953,244.939142 L123.730168,244.939142 C122.490025,244.939142 121.869962,244.694332 121.869962,244.204703 C121.869962,243.715074 122.409147,243.470263 123.487532,243.470263 C126.66877,243.41586 128.515477,243.211851 129.02771,242.85823 C129.539943,242.504609 129.796056,241.348558 129.796056,239.390041 L129.796056,199.159059 C129.796056,194.643592 128.879442,191.814667 127.046187,190.672199 C126.183478,190.128167 124.646802,189.856155 122.436112,189.856155 C121.034211,189.856155 120.333271,189.584143 120.333271,189.040111 C120.333271,188.550482 120.737659,188.305671 121.546448,188.305671 C122.624834,188.305671 123.999755,188.332872 125.671252,188.387275 C127.34275,188.441678 128.232404,188.46888 128.340243,188.46888 C128.502001,188.46888 129.256859,188.441678 130.604841,188.387275 C132.384177,188.387275 134.109568,188.360074 135.781065,188.305671 L163.684149,230.168741 L163.684149,193.854772 C163.684149,192.168272 163.65719,191.148227 163.603271,190.794606 C163.549351,190.440985 163.333678,190.168973 162.956243,189.978562 C162.578808,189.78815 161.284765,189.692946 159.074074,189.692946 C157.132981,189.692946 156.162448,189.448135 156.162448,188.958506 C156.162448,188.414474 156.80947,188.142462 158.103532,188.142462 L163.198878,188.142462 C164.061587,188.196865 164.573812,188.224066 164.73557,188.224066 C164.789489,188.224066 165.274755,188.196865 166.191383,188.142462 L171.124972,188.142462 C172.311196,188.142462 172.904299,188.414474 172.904299,188.958506 Z M223.210728,226.659751 C223.210728,226.550945 223.15681,227.285377 223.048971,228.863071 C222.833294,232.018457 222.725457,235.064992 222.725457,238.002766 C222.725457,238.329186 222.779376,238.995615 222.887214,240.002075 C222.995053,241.008534 223.048971,242.218988 223.048971,243.633472 L223.048971,244.367911 C223.048971,245.075153 222.833298,245.428769 222.401943,245.428769 C221.970589,245.428769 221.59316,245.020751 221.269644,244.204703 C220.514775,242.409396 219.759916,241.239745 219.005046,240.695712 C215.122859,244.123115 210.458911,245.836791 205.013065,245.836791 C197.086932,245.836791 190.522359,243.048668 185.319149,237.472337 C180.115939,231.896007 177.514373,224.864496 177.514373,216.377593 C177.514373,207.836287 179.900265,200.859179 184.672121,195.446058 C189.443977,190.032937 195.604161,187.326418 203.152859,187.326418 C205.902742,187.326418 208.09992,187.557628 209.744457,188.020055 C211.388995,188.482483 213.424417,189.420924 215.850785,190.835408 C217.037009,191.54265 217.926663,191.896266 218.519775,191.896266 C219.005049,191.896266 219.463356,191.461046 219.89471,190.590595 C220.59566,189.067305 221.161804,188.305671 221.593158,188.305671 C222.024513,188.305671 222.240186,188.52328 222.240186,188.958506 C222.240186,189.176119 222.186268,189.529735 222.078429,190.019364 C221.485317,192.630718 221.188766,197.526935 221.188766,204.70816 C221.188766,205.741822 221.107888,206.340248 220.94613,206.503458 C220.784373,206.666667 220.568699,206.748271 220.299102,206.748271 C219.75991,206.748271 219.40944,206.231448 219.247682,205.197787 C218.546731,200.845529 217.54924,197.608586 216.255177,195.48686 C213.613133,191.134602 209.461411,188.958506 203.799887,188.958506 C199.432426,188.958506 195.981645,190.427371 193.447439,193.365145 C188.864301,198.642258 186.572766,206.3674 186.572766,216.540802 C186.572766,225.62614 188.459912,232.671252 192.234261,237.676349 C195.523337,242.028606 199.890732,244.204703 205.336579,244.204703 C208.140381,244.204703 210.701508,243.511072 213.020037,242.12379 C215.338566,240.736508 217.117875,238.846024 218.358018,236.452282 C219.759919,233.677718 220.757411,230.658384 221.350523,227.394191 C221.5662,226.088514 221.91667,225.435685 222.401943,225.435685 C222.941136,225.435685 223.210728,225.843703 223.210728,226.659751 Z M272.303981,231.637621 C272.303981,231.855234 272.250062,233.188093 272.142224,235.636238 C272.034385,238.084383 271.980467,240.423686 271.980467,242.654219 L271.980467,245.347165 C266.696378,245.075148 256.236196,244.939142 240.599607,244.939142 C238.712432,244.939142 236.852245,244.966344 235.01899,245.020747 L230.489794,245.020747 C229.465328,245.020747 228.953102,244.775936 228.953102,244.286307 C228.953102,243.959888 229.114858,243.769479 229.438373,243.715076 C229.600131,243.715076 230.624582,243.633472 232.511756,243.470263 C233.913658,243.361456 234.762873,243.062243 235.059429,242.572614 C235.355985,242.082985 235.504261,240.804529 235.504261,238.737206 L235.504261,192.875519 C235.504261,191.297825 235.275108,190.359384 234.816794,190.060166 C234.35848,189.760948 232.889202,189.611342 230.408915,189.611342 C229.546207,189.611342 229.114859,189.366531 229.114859,188.876902 C229.114859,188.387273 229.707962,188.142462 230.894186,188.142462 L244.724411,188.224066 C245.209684,188.224066 248.256077,188.196865 253.863682,188.142462 L265.186672,188.142462 C266.80425,188.142462 268.287008,188.033657 269.63499,187.816044 C269.742829,190.155383 269.985462,193.392326 270.362897,197.526971 L270.686411,201.035961 C270.74033,201.307977 270.767289,201.661593 270.767289,202.096819 C270.767289,202.640851 270.524656,202.912863 270.039383,202.912863 C269.446271,202.912863 269.014923,202.232833 268.745326,200.872752 C267.72086,195.976462 266.049388,192.875525 263.730859,191.569848 C262.005442,190.59059 257.476292,190.100968 250.14327,190.100968 L243.511233,190.100968 L243.511233,214.011065 L245.452317,214.011065 C251.491276,214.011065 255.171211,213.548645 256.492233,212.62379 C257.813255,211.698935 258.71639,209.006016 259.201663,204.544952 C259.309502,203.402484 259.606053,202.831259 260.091327,202.831259 C260.684439,202.831259 260.98099,203.32088 260.98099,204.300138 C260.98099,205.279396 260.927072,206.72106 260.819233,208.625173 C260.711394,210.529286 260.657476,211.970949 260.657476,212.950207 C260.657476,218.771352 260.765313,222.769929 260.98099,224.946058 C261.034909,225.49009 261.061869,225.952511 261.061869,226.333333 C261.061869,227.040575 260.765317,227.394191 260.172205,227.394191 C259.79477,227.394191 259.538657,227.162981 259.403859,226.700553 C259.269061,226.238126 259.039908,224.728459 258.716392,222.171508 C258.285038,218.961717 256.964035,216.97603 254.753345,216.214385 C253.782798,215.887965 251.248631,215.724758 247.150766,215.724758 L243.511233,215.724758 L243.511233,243.143845 C255.373473,243.143845 262.328955,242.899034 264.377887,242.409405 C267.936559,241.593357 269.958502,238.111603 270.443775,231.964039 C270.551614,230.603958 270.902084,229.923928 271.495196,229.923928 C272.034388,229.923928 272.303981,230.495153 272.303981,231.637621 Z M326.896971,228.944675 C326.896971,233.623352 325.131142,237.608328 321.599429,240.899723 C318.067717,244.191118 313.821638,245.836791 308.861065,245.836791 C305.949424,245.836791 302.471683,244.939151 298.427738,243.143845 C297.349352,242.654216 296.540575,242.409405 296.001382,242.409405 C295.354351,242.409405 294.949963,243.19824 294.788205,244.775934 C294.734286,245.591982 294.383816,246 293.736784,246 C293.197592,246 292.927999,245.673586 292.927999,245.020747 C292.927999,244.585521 292.954959,244.259107 293.008878,244.041494 C293.440232,240.722897 293.655906,237.649161 293.655906,234.820194 C293.655906,234.276161 293.601987,232.752894 293.494149,230.250346 C293.44023,229.923926 293.41327,229.488707 293.41327,228.944675 C293.41327,228.128627 293.736781,227.720609 294.383812,227.720609 C294.923005,227.720609 295.300434,228.373437 295.516111,229.679115 C296.918013,239.362888 301.474123,244.204703 309.184579,244.204703 C312.473654,244.204703 315.021302,243.266261 316.827597,241.38935 C318.633893,239.512439 319.537027,236.860321 319.537027,233.432918 C319.537027,230.386338 318.660852,227.788623 316.908476,225.639696 C315.1561,223.490768 312.150145,221.355474 307.890523,219.233748 C302.768192,216.676797 299.209573,214.201487 297.21456,211.807746 C295.219547,209.414004 294.222055,206.449073 294.222055,202.912863 C294.222055,198.397396 295.664374,194.670831 298.549055,191.733057 C301.433736,188.795283 305.086712,187.326418 309.508093,187.326418 C311.341348,187.326418 313.875516,187.952045 317.110672,189.20332 C318.242977,189.638545 319.078713,189.856155 319.617906,189.856155 C320.211018,189.856155 320.601927,189.74735 320.790644,189.529737 C320.979362,189.312124 321.154597,188.740899 321.316354,187.816044 C321.424193,187.272012 321.720744,187 322.206018,187 C322.745211,187 323.014803,187.326414 323.014803,187.979253 C323.014803,188.414479 322.987844,188.740893 322.933924,188.958506 C322.772167,190.264184 322.691289,191.841853 322.691289,193.691563 C322.691289,196.302918 322.826085,198.370209 323.095681,199.893499 L323.17656,201.19917 C323.230479,201.797606 322.987846,202.096819 322.448653,202.096819 C321.855541,202.096819 321.451153,201.471191 321.235476,200.219917 C320.642364,197.010127 319.240484,194.330808 317.029794,192.181881 C314.819103,190.032954 312.338854,188.958506 309.588971,188.958506 C306.893008,188.958506 304.749749,189.828945 303.15913,191.569848 C301.568512,193.310751 300.773214,195.677256 300.773214,198.669433 C300.773214,202.151239 301.932461,204.952963 304.25099,207.074689 C305.545052,208.27156 308.348813,209.958034 312.662354,212.134163 C317.730766,214.691115 321.370262,217.28883 323.580953,219.927386 C325.791643,222.565942 326.896971,225.571675 326.896971,228.944675 Z M378.416579,226.659751 C378.416579,226.550945 378.36266,227.285377 378.254822,228.863071 C378.039144,232.018457 377.931308,235.064992 377.931308,238.002766 C377.931308,238.329186 377.985226,238.995615 378.093065,240.002075 C378.200903,241.008534 378.254822,242.218988 378.254822,243.633472 L378.254822,244.367911 C378.254822,245.075153 378.039148,245.428769 377.607794,245.428769 C377.176439,245.428769 376.79901,245.020751 376.475494,244.204703 C375.720625,242.409396 374.965766,241.239745 374.210896,240.695712 C370.328709,244.123115 365.664762,245.836791 360.218915,245.836791 C352.292782,245.836791 345.728209,243.048668 340.524999,237.472337 C335.321789,231.896007 332.720224,224.864496 332.720224,216.377593 C332.720224,207.836287 335.106116,200.859179 339.877971,195.446058 C344.649827,190.032937 350.810011,187.326418 358.358709,187.326418 C361.108592,187.326418 363.30577,187.557628 364.950308,188.020055 C366.594845,188.482483 368.630267,189.420924 371.056635,190.835408 C372.242859,191.54265 373.132513,191.896266 373.725625,191.896266 C374.210899,191.896266 374.669206,191.461046 375.10056,190.590595 C375.80151,189.067305 376.367654,188.305671 376.799008,188.305671 C377.230363,188.305671 377.446036,188.52328 377.446036,188.958506 C377.446036,189.176119 377.392118,189.529735 377.284279,190.019364 C376.691167,192.630718 376.394616,197.526935 376.394616,204.70816 C376.394616,205.741822 376.313738,206.340248 376.15198,206.503458 C375.990223,206.666667 375.774549,206.748271 375.504952,206.748271 C374.96576,206.748271 374.61529,206.231448 374.453532,205.197787 C373.752581,200.845529 372.75509,197.608586 371.461027,195.48686 C368.818983,191.134602 364.667261,188.958506 359.005737,188.958506 C354.638276,188.958506 351.187495,190.427371 348.653289,193.365145 C344.070151,198.642258 341.778616,206.3674 341.778616,216.540802 C341.778616,225.62614 343.665762,232.671252 347.440111,237.676349 C350.729187,242.028606 355.096583,244.204703 360.542429,244.204703 C363.346231,244.204703 365.907358,243.511072 368.225887,242.12379 C370.544416,240.736508 372.323725,238.846024 373.563868,236.452282 C374.965769,233.677718 375.963261,230.658384 376.556373,227.394191 C376.77205,226.088514 377.12252,225.435685 377.607794,225.435685 C378.146986,225.435685 378.416579,225.843703 378.416579,226.659751 Z M437.377008,244.123098 C437.377008,244.612727 436.864783,244.857538 435.840317,244.857538 L424.679083,244.775934 C423.924213,244.775934 422.818885,244.803135 421.363064,244.857538 C419.907244,244.911941 418.828875,244.939142 418.127924,244.939142 C417.049539,244.939142 416.510354,244.721533 416.510354,244.286307 C416.510354,243.851081 417.777438,243.551868 420.311644,243.388658 C421.659626,243.279852 422.441443,243.048642 422.65712,242.695021 C422.872798,242.3414 422.980635,241.076544 422.980635,238.900415 L422.980635,215.071923 L398.636205,215.071923 L398.636205,238.165975 C398.636205,240.61412 398.824919,242.055784 399.202354,242.49101 C399.579789,242.926235 400.846873,243.225449 403.003644,243.388658 C404.405545,243.497465 405.106485,243.742276 405.106485,244.123098 C405.106485,244.612727 404.5673,244.857538 403.488915,244.857538 L402.761008,244.857538 C401.466946,244.857538 400.105505,244.830337 398.676644,244.775934 C397.247783,244.72153 396.398567,244.694329 396.128971,244.694329 C395.374101,244.694329 394.241813,244.72153 392.732074,244.775934 C391.222334,244.830337 388.957759,244.857538 385.938279,244.857538 C384.859894,244.857538 384.320709,244.639928 384.320709,244.204703 C384.320709,243.769477 384.859894,243.497465 385.938279,243.388658 C386.63923,243.334255 387.367129,243.279853 388.121999,243.22545 C389.308223,243.116643 390.063082,242.844631 390.386597,242.409405 C390.548355,242.137389 390.629233,240.614122 390.629233,237.839557 L390.629233,194.75242 C390.629233,192.304275 390.507916,190.862612 390.265279,190.427386 C390.022643,189.99216 389.173427,189.747349 387.717607,189.692946 C386.046109,189.58414 385.062097,189.502536 384.765541,189.448133 C384.468985,189.39373 384.320709,189.17612 384.320709,188.795297 C384.320709,188.360072 384.671179,188.142462 385.37213,188.142462 C385.587807,188.142462 386.046114,188.169663 386.747065,188.224066 C388.095046,188.332873 391.276236,188.387275 396.290728,188.387275 C399.040611,188.387275 400.954716,188.360074 402.033102,188.305671 C402.410537,188.251268 402.895803,188.224066 403.488915,188.224066 C404.459462,188.224066 404.944728,188.496078 404.944728,189.040111 C404.944728,189.52974 404.068553,189.77455 402.316177,189.77455 C400.5638,189.77455 399.51239,189.97856 399.161915,190.386584 C398.81144,190.794608 398.636205,192.086665 398.636205,194.262794 L398.636205,213.031812 L422.980635,213.031812 L422.980635,195.48686 C422.980635,192.60349 422.764961,190.903414 422.333606,190.386584 C421.902252,189.869753 420.392535,189.638543 417.80441,189.692946 C416.995621,189.692946 416.591233,189.448135 416.591233,188.958506 C416.591233,188.468877 417.04954,188.224066 417.966167,188.224066 L422.333606,188.224066 C424.2747,188.27847 425.730499,188.305671 426.701046,188.305671 C429.990121,188.305671 432.214258,188.27847 433.373522,188.224066 C434.532787,188.169663 435.274166,188.142462 435.597681,188.142462 C436.729986,188.142462 437.29613,188.387273 437.29613,188.876902 C437.29613,189.366531 436.109924,189.638543 433.737476,189.692946 C433.036525,189.692946 432.5243,189.747348 432.200784,189.856155 C431.661591,190.019365 431.324601,190.318578 431.189803,190.753804 C431.055005,191.189029 430.987606,192.467486 430.987606,194.589212 L430.987606,238.002766 C430.987606,240.614121 431.122403,242.137388 431.391999,242.572614 C431.931192,243.17105 433.494827,243.470263 436.082952,243.470263 C436.945661,243.361456 437.377008,243.579066 437.377008,244.123098 Z M494.477232,216.86722 C494.477232,224.9733 492.064381,231.828003 487.238606,237.431535 C482.412831,243.035067 476.49528,245.836791 469.485775,245.836791 C462.044915,245.836791 455.790373,242.994265 450.721962,237.309129 C445.65355,231.623992 443.119382,224.619682 443.119382,216.295989 C443.119382,207.809086 445.559193,200.859179 450.438887,195.446058 C455.318581,190.032937 461.559643,187.326418 469.162261,187.326418 C476.333524,187.326418 482.345433,190.155343 487.198167,195.813278 C492.050902,201.471213 494.477232,208.489124 494.477232,216.86722 Z M485.41884,217.275242 C485.41884,207.319452 483.396898,199.567109 479.352952,194.017981 C476.818746,190.536174 473.287087,188.795297 468.757868,188.795297 C464.444326,188.795297 461.101381,190.128156 458.728933,192.793914 C454.361472,197.690204 452.177775,205.660157 452.177775,216.704011 C452.177775,225.46293 453.700971,232.263231 456.74741,237.105118 C459.793849,241.947004 464.066887,244.367911 469.566653,244.367911 C474.688984,244.367911 478.544154,242.08301 481.132279,237.51314 C483.990001,232.45364 485.41884,225.707742 485.41884,217.275242 Z M552.709756,216.86722 C552.709756,224.9733 550.296904,231.828003 545.47113,237.431535 C540.645355,243.035067 534.727803,245.836791 527.718298,245.836791 C520.277438,245.836791 514.022896,242.994265 508.954485,237.309129 C503.886073,231.623992 501.351905,224.619682 501.351905,216.295989 C501.351905,207.809086 503.791716,200.859179 508.67141,195.446058 C513.551104,190.032937 519.792166,187.326418 527.394784,187.326418 C534.566047,187.326418 540.577956,190.155343 545.43069,195.813278 C550.283425,201.471213 552.709756,208.489124 552.709756,216.86722 Z M543.651363,217.275242 C543.651363,207.319452 541.629421,199.567109 537.585475,194.017981 C535.05127,190.536174 531.51961,188.795297 526.990391,188.795297 C522.676849,188.795297 519.333905,190.128156 516.961457,192.793914 C512.593996,197.690204 510.410298,205.660157 510.410298,216.704011 C510.410298,225.46293 511.933494,232.263231 514.979933,237.105118 C518.026372,241.947004 522.299411,244.367911 527.799176,244.367911 C532.921507,244.367911 536.776677,242.08301 539.364802,237.51314 C542.222524,232.45364 543.651363,225.707742 543.651363,217.275242 Z M600.994223,238.410788 C600.994223,239.825272 600.913345,242.164576 600.751587,245.428769 L599.861924,245.428769 C599.538408,245.428769 598.75659,245.374367 597.516447,245.26556 C596.276304,245.156754 594.874424,245.102351 593.310765,245.102351 L559.665307,244.857538 C558.748679,244.857538 558.290373,244.612727 558.290373,244.123098 C558.290373,243.742276 559.018272,243.497465 560.474092,243.388658 C562.523024,243.279852 563.74967,243.048642 564.154064,242.695021 C564.558459,242.3414 564.760653,241.321355 564.760653,239.634855 L564.760653,193.773167 C564.760653,191.760248 564.558459,190.590596 564.154064,190.264177 C563.74967,189.937758 562.307351,189.77455 559.827064,189.77455 C558.802598,189.77455 558.290373,189.475337 558.290373,188.876902 C558.290373,188.387273 558.613883,188.142462 559.260915,188.142462 L559.988821,188.142462 C561.768157,188.305672 565.299816,188.387275 570.583905,188.387275 C571.069179,188.387275 572.012752,188.346473 573.414653,188.264869 C574.816554,188.183264 575.975801,188.142462 576.892429,188.142462 L577.782092,188.142462 C578.752639,188.142462 579.237905,188.414474 579.237905,188.958506 C579.237905,189.284926 579.089629,189.488935 578.793073,189.570539 C578.496517,189.652144 577.566424,189.720147 576.002765,189.77455 C574.439106,189.828954 573.509013,190.087365 573.212457,190.549793 C572.915901,191.01222 572.767625,192.440283 572.767625,194.834025 L572.767625,242.980636 C574.223445,243.035039 576.245388,243.062241 578.833513,243.062241 C585.142068,243.062241 589.590341,242.735826 592.178466,242.082988 C594.766591,241.430149 596.518941,240.206095 597.435569,238.410788 C598.352196,236.615482 598.891381,234.194575 599.053139,231.147994 C599.107058,230.440753 599.430569,230.087137 600.023681,230.087137 C600.724631,230.087137 601.048142,230.495155 600.994223,231.311203 L600.913344,233.351314 L600.913344,234.085754 C600.967264,234.466576 600.994223,234.847393 600.994223,235.228216 L600.994223,238.410788 Z" id="DANCE-SCHOOL-Copy" fill="#000000"></path>
                <g id="Rectangle-2">
                    <mask id="mask-2" fill="white">
                        <use xlink:href="#path-1"></use>
                    </mask>
                    <use id="Mask" fill="#000000" xlink:href="#path-1"></use>
                    <rect fill="url(#linearGradient-3)" mask="url(#mask-2)" x="-73.1538462" y="-65.2" width="796.564103" height="374.9"></rect>
                </g>
            </g>
        </g>
    </g>
</svg>